<mxfile host="app.diagrams.net" agent="Mozilla/5.0 (Windows NT 10.0; Win64; x64) AppleWebKit/537.36 (KHTML, like Gecko) Chrome/128.0.0.0 Safari/537.36 Edg/128.0.0.0" version="24.7.16">
  <diagram name="Trang-1" id="JqWufUMo1YawlZKLsDzj">
    <mxGraphModel dx="719" dy="1571" grid="1" gridSize="10" guides="1" tooltips="1" connect="1" arrows="1" fold="1" page="1" pageScale="1" pageWidth="827" pageHeight="1169" math="0" shadow="0">
      <root>
        <mxCell id="0" />
        <mxCell id="1" parent="0" />
        <mxCell id="Lr69Wq48RwQ8DJ6pYq4B-3" style="edgeStyle=orthogonalEdgeStyle;rounded=0;orthogonalLoop=1;jettySize=auto;html=1;fillColor=#f8cecc;strokeColor=#000000;strokeWidth=3;endArrow=block;endFill=1;" edge="1" parent="1">
          <mxGeometry relative="1" as="geometry">
            <mxPoint x="230" y="-10" as="sourcePoint" />
            <mxPoint x="270" y="-10.100000000000001" as="targetPoint" />
            <Array as="points">
              <mxPoint x="240" y="-10.11" />
            </Array>
          </mxGeometry>
        </mxCell>
        <mxCell id="Lr69Wq48RwQ8DJ6pYq4B-1" value="&lt;font face=&quot;Helvetica&quot; style=&quot;font-size: 16px; font-weight: normal;&quot;&gt;Original Model&lt;/font&gt;" style="rounded=1;whiteSpace=wrap;html=1;fontStyle=1;fillColor=#1ba1e2;fontColor=#ffffff;strokeColor=#006EAF;" vertex="1" parent="1">
          <mxGeometry x="100" y="-40" width="120" height="60" as="geometry" />
        </mxCell>
        <mxCell id="Lr69Wq48RwQ8DJ6pYq4B-12" style="edgeStyle=orthogonalEdgeStyle;shape=connector;rounded=0;orthogonalLoop=1;jettySize=auto;html=1;strokeColor=#000000;strokeWidth=1.5;align=center;verticalAlign=middle;fontFamily=Helvetica;fontSize=11;fontColor=default;labelBackgroundColor=default;endArrow=block;endFill=1;fillColor=#f8cecc;exitX=0.371;exitY=0.993;exitDx=0;exitDy=0;entryX=0.5;entryY=0;entryDx=0;entryDy=0;exitPerimeter=0;" edge="1" parent="1" source="Lr69Wq48RwQ8DJ6pYq4B-2" target="Lr69Wq48RwQ8DJ6pYq4B-16">
          <mxGeometry relative="1" as="geometry">
            <mxPoint x="160" y="50" as="targetPoint" />
            <Array as="points">
              <mxPoint x="325" y="50" />
              <mxPoint x="200" y="50" />
            </Array>
          </mxGeometry>
        </mxCell>
        <mxCell id="Lr69Wq48RwQ8DJ6pYq4B-2" value="&lt;font face=&quot;Helvetica&quot; color=&quot;#ffffff&quot; style=&quot;font-size: 16px;&quot;&gt;Model Compressor&lt;/font&gt;" style="rounded=1;whiteSpace=wrap;html=1;fillColor=#fa6800;strokeColor=#C73500;fontColor=#000000;" vertex="1" parent="1">
          <mxGeometry x="280" y="-40" width="120" height="60" as="geometry" />
        </mxCell>
        <mxCell id="Lr69Wq48RwQ8DJ6pYq4B-5" value="" style="verticalLabelPosition=bottom;verticalAlign=top;html=1;shape=mxgraph.infographic.shadedCube;isoAngle=15;fillColor=#10739E;strokeColor=none;fontFamily=Helvetica;fontSize=11;fontColor=default;labelBackgroundColor=default;" vertex="1" parent="1">
          <mxGeometry x="460" y="-35" width="50" height="50" as="geometry" />
        </mxCell>
        <mxCell id="Lr69Wq48RwQ8DJ6pYq4B-8" style="edgeStyle=orthogonalEdgeStyle;rounded=0;orthogonalLoop=1;jettySize=auto;html=1;fillColor=#f8cecc;strokeColor=#000000;strokeWidth=3;endArrow=block;endFill=1;" edge="1" parent="1">
          <mxGeometry relative="1" as="geometry">
            <mxPoint x="410" y="-10.07" as="sourcePoint" />
            <mxPoint x="450" y="-10.170000000000002" as="targetPoint" />
            <Array as="points">
              <mxPoint x="420" y="-10.18" />
            </Array>
          </mxGeometry>
        </mxCell>
        <mxCell id="Lr69Wq48RwQ8DJ6pYq4B-10" value="Compressed model" style="text;html=1;align=center;verticalAlign=middle;whiteSpace=wrap;rounded=0;fontFamily=Helvetica;fontSize=11;fontColor=default;labelBackgroundColor=default;" vertex="1" parent="1">
          <mxGeometry x="455" y="20" width="60" height="30" as="geometry" />
        </mxCell>
        <mxCell id="Lr69Wq48RwQ8DJ6pYq4B-16" value="&lt;div style=&quot;text-align: start;&quot;&gt;&lt;font face=&quot;monospace&quot; color=&quot;#ba0000&quot;&gt;&lt;span style=&quot;font-size: 0px; text-wrap: nowrap;&quot;&gt;Structured pruning&lt;/span&gt;&lt;/font&gt;&lt;br&gt;&lt;/div&gt;" style="rounded=1;whiteSpace=wrap;html=1;fontFamily=Helvetica;fontSize=11;fontColor=default;labelBackgroundColor=default;" vertex="1" parent="1">
          <mxGeometry x="140" y="80" width="120" height="60" as="geometry" />
        </mxCell>
      </root>
    </mxGraphModel>
  </diagram>
</mxfile>
